<svg xmlns="http://www.w3.org/2000/svg" viewBox="0 0 640 180" width="640" height="180" role="img" aria-label="boost3000">
  <defs>
    <linearGradient id="bg" x1="0" y1="0" x2="1" y2="1">
      <stop offset="0" stop-color="#0f1b2d"/>
      <stop offset="1" stop-color="#080d15"/>
    </linearGradient>
    <linearGradient id="accent" x1="0" y1="1" x2="1" y2="0">
      <stop offset="0" stop-color="#22d3ee"/>
      <stop offset="0.55" stop-color="#2dd4bf"/>
      <stop offset="1" stop-color="#4ade80"/>
    </linearGradient>
    <linearGradient id="edge" x1="0" y1="0" x2="1" y2="1">
      <stop offset="0" stop-color="#1e3a5f"/>
      <stop offset="1" stop-color="#0c1a2c"/>
    </linearGradient>
    <linearGradient id="body" x1="0" y1="0" x2="1" y2="0">
      <stop offset="0" stop-color="#ffffff"/>
      <stop offset="1" stop-color="#bcc8d6"/>
    </linearGradient>
    <linearGradient id="flame" x1="0" y1="0" x2="0" y2="1">
      <stop offset="0" stop-color="#fde68a"/>
      <stop offset="0.5" stop-color="#fbbf24"/>
      <stop offset="1" stop-color="#f97316"/>
    </linearGradient>
    <radialGradient id="moon" cx="0.4" cy="0.4" r="0.75">
      <stop offset="0" stop-color="#f8fafc"/>
      <stop offset="1" stop-color="#cbd5e1"/>
    </radialGradient>
    <clipPath id="badgeClip">
      <rect x="108" y="38" width="104" height="104" rx="26"/>
    </clipPath>
    <filter id="glow" x="-60%" y="-60%" width="220%" height="220%">
      <feGaussianBlur stdDeviation="3.2" result="b"/>
      <feMerge><feMergeNode in="b"/><feMergeNode in="SourceGraphic"/></feMerge>
    </filter>
  </defs>

  <!-- card -->
  <rect x="3" y="3" width="634" height="174" rx="26" fill="url(#bg)" stroke="url(#edge)" stroke-width="1.5"/>
  <polyline points="40,150 160,120 250,135 360,70 470,95 600,30" fill="none"
            stroke="url(#accent)" stroke-width="2" opacity="0.10" stroke-linecap="round" stroke-linejoin="round"/>
  <rect x="3" y="3" width="634" height="58" rx="26" fill="#ffffff" opacity="0.03"/>

  <!-- badge -->
  <rect x="108" y="38" width="104" height="104" rx="26" fill="#0a1320" stroke="url(#accent)" stroke-width="1.5"/>

  <!-- space scene (origin at badge centre) -->
  <g clip-path="url(#badgeClip)">
    <g transform="translate(160,90)">
      <!-- stars -->
      <circle cx="-36" cy="-30" r="1.6" fill="#e2e8f0" opacity="0.9"/>
      <circle cx="-20" cy="34" r="1.3" fill="#e2e8f0" opacity="0.7"/>
      <circle cx="8" cy="-42" r="1.2" fill="#e2e8f0" opacity="0.8"/>
      <circle cx="42" cy="6" r="1.4" fill="#e2e8f0" opacity="0.7"/>
      <path d="M-30,-44 l1.6,4 4,1.6 -4,1.6 -1.6,4 -1.6,-4 -4,-1.6 4,-1.6 Z" fill="#fde68a" opacity="0.9"/>

      <!-- moon -->
      <circle cx="30" cy="-30" r="14" fill="url(#moon)"/>
      <circle cx="33" cy="-34" r="2.6" fill="#b8c4d2" opacity="0.7"/>
      <circle cx="25" cy="-27" r="2" fill="#b8c4d2" opacity="0.6"/>
      <circle cx="34" cy="-24" r="1.6" fill="#b8c4d2" opacity="0.6"/>

      <!-- exhaust puffs (trailing lower-left) -->
      <circle cx="-34" cy="33" r="3.2" fill="#fbbf24" opacity="0.35"/>
      <circle cx="-41" cy="40" r="2.2" fill="#fbbf24" opacity="0.22"/>
      <circle cx="-47" cy="46" r="1.4" fill="#fbbf24" opacity="0.15"/>

      <!-- rocket: drawn nose-up, tilted 45° to aim up-right at the moon -->
      <g transform="translate(-8,6) rotate(45)">
        <g filter="url(#glow)">
          <path d="M-7,17 Q-9,31 0,41 Q9,31 7,17 Z" fill="url(#flame)"/>
          <path d="M-3.5,18 Q-4,27 0,34 Q4,27 3.5,18 Z" fill="#fff7ed"/>
        </g>
        <path d="M-10,4 L-21,19 L-10,14 Z" fill="#2dd4bf"/>
        <path d="M10,4 L21,19 L10,14 Z" fill="#22d3ee"/>
        <path d="M-10,-12 L10,-12 L10,12 Q10,16 6,17 L-6,17 Q-10,16 -10,12 Z" fill="url(#body)"/>
        <path d="M0,-30 C5,-24 10,-19 10,-12 L-10,-12 C-10,-19 -5,-24 0,-30 Z" fill="url(#accent)"/>
        <!-- rising-chart screen painted on the hull -->
        <rect x="-7" y="-5" width="14" height="13" rx="3" fill="#0f1b2d"/>
        <polyline points="-4,5 -1,1 2,3 5,-3" fill="none" stroke="url(#accent)"
                  stroke-width="1.6" stroke-linecap="round" stroke-linejoin="round"/>
        <path d="M5,-3 l-2.6,0 M5,-3 l0,2.6" fill="none" stroke="url(#accent)" stroke-width="1.6" stroke-linecap="round"/>
      </g>
    </g>
  </g>

  <!-- wordmark -->
  <text x="238" y="110" font-family="'Segoe UI', Helvetica, Arial, sans-serif"
        font-size="58" font-weight="800" letter-spacing="-1">
    <tspan fill="#f1f5f9">boost</tspan><tspan fill="url(#accent)">3000</tspan>
  </text>
</svg>
